<svg height="411pt" viewBox="0 -7 411.75381 411" width="411pt" xmlns="http://www.w3.org/2000/svg"><path d="m390.195312 7.957031c-11.886718 0-21.554687 9.664063-21.554687 21.550781 0 11.886719 9.667969 21.554688 21.554687 21.554688 11.886719 0 21.558594-9.667969 21.558594-21.554688 0-11.886718-9.671875-21.550781-21.558594-21.550781zm0 29.453125c-4.355468 0-7.902343-3.546875-7.902343-7.902344 0-4.351562 3.546875-7.898437 7.902343-7.898437 4.359376 0 7.90625 3.546875 7.90625 7.898437 0 4.355469-3.546874 7.902344-7.90625 7.902344zm0 0"/><path d="m43.113281 193.347656c0-11.886718-9.667969-21.550781-21.554687-21.550781-11.886719 0-21.558594 9.664063-21.558594 21.550781 0 11.886719 9.671875 21.554688 21.558594 21.554688 11.886718 0 21.554687-9.667969 21.554687-21.554688zm-21.554687 7.902344c-4.359375 0-7.90625-3.546875-7.90625-7.902344 0-4.351562 3.546875-7.898437 7.90625-7.898437 4.355468 0 7.902344 3.546875 7.902344 7.898437 0 4.355469-3.546876 7.902344-7.902344 7.902344zm0 0"/><path d="m38.941406 118.253906c0 5.832032-4.726562 10.5625-10.558594 10.5625-5.832031 0-10.558593-4.730468-10.558593-10.5625 0-5.828125 4.726562-10.558594 10.558593-10.558594 5.832032 0 10.558594 4.730469 10.558594 10.558594zm0 0"/><path d="m387.101562 377.667969c0 5.832031-4.726562 10.558593-10.558593 10.558593s-10.558594-4.726562-10.558594-10.558593 4.726563-10.558594 10.558594-10.558594 10.558593 4.726563 10.558593 10.558594zm0 0"/><path d="m195.957031 29.507812c0 5.832032-4.726562 10.558594-10.558593 10.558594-5.832032 0-10.5625-4.726562-10.5625-10.558594 0-5.832031 4.730468-10.558593 10.5625-10.558593 5.832031 0 10.558593 4.726562 10.558593 10.558593zm0 0"/><path d="m4.664062 36.164062c1.332032 1.332032 3.082032 2 4.828126 2 1.746093 0 3.492187-.667968 4.824218-2l7.242188-7.242187 7.238281 7.238281c1.332031 1.335938 3.082031 2 4.824219 2 1.746094 0 3.496094-.664062 4.828125-2 2.667969-2.664062 2.667969-6.984375 0-9.652344l-7.238281-7.238281 7.238281-7.242187c2.667969-2.664063 2.667969-6.984375 0-9.652344-2.664063-2.664062-6.988281-2.664062-9.652344 0l-7.238281 7.242188-7.242188-7.242188c-2.664062-2.664062-6.984375-2.664062-9.652344 0-2.664062 2.667969-2.664062 6.988281 0 9.652344l7.238282 7.242187-7.238282 7.238281c-2.667968 2.667969-2.667968 6.988282 0 9.65625zm0 0"/><path d="m353.773438 204.289062 31.1875-17.054687c5.695312-3.105469 9.808593-8.257813 11.582031-14.5 1.777343-6.238281.984375-12.785156-2.222657-18.433594-3.175781-5.585937-8.335937-9.59375-14.527343-11.285156-6.203125-1.714844-12.6875-.878906-18.257813 2.308594l-25.5 14.570312c-14.167968 8.101563-24.4375 21.203125-28.921875 36.886719l-10.207031 35.722656c-.070312.25-.230469.472656-.429688.625-.140624.101563-.570312.425782-1.214843.09375-.636719-.320312-.636719-.859375-.636719-1.039062v-14.941406c0-13.171876-10.722656-23.894532-23.894531-23.894532-13.175781 0-23.894531 10.722656-23.894531 23.894532v22.367187c0 12.253906-5.988282 23.765625-16.023438 30.804687l-2.804688 1.96875c-10.132812 7.105469-17.363281 17.882813-20.148437 29.910157l-2.589844-12.945313c-4.363281-21.800781-.089843-44.074218 12.027344-62.714844 10.390625-15.984374 15.886719-34.511718 15.886719-53.578124v-4.941407c0-3.929687 1.519531-7.628906 4.289062-10.421875 4.1875-4.238281 10.46875-5.550781 16.015625-3.324218l18.566407 7.425781c9.359374 3.722656 20.175781.367187 25.757812-8 3.730469-5.59375 4.621094-12.445313 2.441406-18.8125-2.183594-6.367188-7.09375-11.234375-13.476562-13.359375l-.148438-.054688 3.273438-6.546875c5.222656-10.4375 15.71875-16.925781 27.394531-16.925781h21.621094c13.21875 0 23.972656-10.753906 23.972656-23.972656s-10.753906-23.972656-23.972656-23.972656h-10.160157v-10.402344c0-13.171875-10.71875-23.890625-23.894531-23.890625-13.171875 0-23.894531 10.71875-23.894531 23.890625v9.636718c0 2.871094-1.230469 5.605469-3.382812 7.503907-2.117188 1.882812-4.828126 2.738281-7.65625 2.472656-2.816407-.285156-5.304688-1.691406-7.007813-3.964844l-2.292969-3.054687c-4.320312-5.765625-10.917968-9.359375-18.101562-9.871094-7.148438-.460938-14.226563 2.117188-19.320313 7.214844-8.679687 8.679687-9.671875 22.632812-2.308593 32.445312l5.132812 6.855469c4.371094 5.816406 3.78125 14.097656-1.367188 19.25-4.953124 4.945313-12.769531 5.722656-18.59375 1.839844l-22.171874-14.785157c-8.535157-5.695312-15.476563-13.554687-20.0625-22.726562l-9.320313-18.640625c-6.414063-12.820313-22.058594-18.03125-34.882813-11.625-12.816406 6.40625-18.03125 22.054687-11.625 34.882813l13.515626 27.023437-27.734376 8.300781c-12.394531 3.714844-19.753906 16.480469-16.761718 29.058594 1.648437 6.921875 6.214844 12.773438 12.535156 16.039062 6.320312 3.289063 13.734375 3.648438 20.328125.980469l28.800781-11.539062c11.246094-4.527344 24.121094-2.621094 33.59375 4.964843 8.335938 6.667969 13.113282 16.605469 13.113282 27.28125 0 7.820313-2.328126 15.367188-6.734376 21.824219l-3.625 5.308594-3.613281-7.234375c-6.285156-12.558594-21.609375-17.671875-34.164062-11.394531-6.324219 3.167969-10.933594 8.632812-12.984375 15.398437-2.050782 6.765625-1.246094 13.875 2.261718 20.015625l15.140626 26.492188c5.796874 10.148437 9.566406 21.148437 11.21875 32.699219l4.230468 29.613281-11.632812-4.652344c-11.515625-4.605469-20.914063-13.253906-26.460938-24.339844l-2.597656-5.207031c-2.269531-4.539062-2.640625-9.695312-1.03125-14.507812l1.324219-3.964844c3.207031-9.621094.742187-20.0625-6.433594-27.242188l-5.003906-5c-4.429688-4.425781-10.550781-6.648437-16.773438-5.992187-6.230469.617187-11.796875 3.957031-15.269531 9.164062-2.144531 3.222657-6.519531 4.09375-9.699219 1.96875-.011719-.007812-.582031-.394531-.59375-.402343-10.652343-7.105469-25.089843-4.207032-32.191406 6.441406-6.507813 9.761718-4.699219 22.871094 4.207031 30.5l39.21875 33.625c.574219.492187.636719 1.089844.585938 1.507812-.050782.414063-.253906.980469-.933594 1.320313l-18.511719 9.253906c-7.136719 3.566406-12.273437 10.066406-14.105469 17.824219-1.832031 7.765625-.140624 15.875 4.644532 22.253906 8.527344 11.378906 24.484375 14.113281 36.328125 6.226562l15.167969-10.113281c10.625-7.082031 24.300781-7.910156 35.6875-2.128906l10.445312 5.289063c9 4.550781 14.59375 13.652343 14.59375 23.738281v13.742187c0 3.773438 3.054688 6.824219 6.828125 6.824219h68.265625c3.769531 0 6.824219-3.050781 6.824219-6.824219v-15.253906c0-2.949219 1.210937-5.660156 3.410156-7.628906 2.191406-1.964844 5.03125-2.898438 7.941406-2.546875l33.097657 3.632812c18.492187 2.015625 37.027343-2.8125 52.160156-13.632812l21.566406-15.398438c5.898438-4.207031 9.625-10.765625 10.226562-17.992187.597657-7.226563-2-14.3125-7.128906-19.441406-8.582031-8.578126-22.390625-9.578126-32.105468-2.332032l-20.757813 15.453125c-5.953125 4.433594-13.320313 6.871094-20.734375 6.871094h-17.164062c-5.53125 0-10.03125-4.5-10.03125-10.023437 0-7.316407 4.035156-13.957032 10.527343-17.320313l31.683594-16.433594c13.671875-7.085937 29.035156-10.835937 44.433594-10.835937h25.992187c13.175782 0 23.894532-10.71875 23.894532-23.890625 0-13.175781-10.71875-23.894531-23.894532-23.894531h-15.171875c-4.808593 0-8.71875-3.914063-8.71875-8.71875 0-3.179688 1.738281-6.113282 4.535157-7.640626zm4.183593 30.019532h15.171875c5.648438 0 10.242188 4.59375 10.242188 10.242187 0 5.644531-4.59375 10.238281-10.242188 10.238281h-25.996094c-17.570312 0-35.113281 4.273438-50.71875 12.367188l-31.683593 16.433594c-11.035157 5.71875-17.890625 17.007812-17.890625 29.4375 0 13.0625 10.621094 23.679687 23.683594 23.679687h17.164062c10.328125 0 20.585938-3.398437 28.886719-9.570312l20.757812-15.460938c4.34375-3.214843 10.488281-2.773437 14.300781 1.039063 2.285157 2.285156 3.441407 5.441406 3.171876 8.660156-.265626 3.214844-1.925782 6.132812-4.550782 8.011719l-21.566406 15.398437c-12.402344 8.859375-27.578125 12.828125-42.738281 11.167969l-33.09375-3.632813c-6.722657-.722656-13.496094 1.425782-18.546875 5.953126-5.054688 4.519531-7.949219 11.003906-7.949219 17.792968v8.425782h-54.613281v-6.910157c0-15.269531-8.460938-29.027343-22.082032-35.929687l-10.441406-5.28125c-15.78125-7.992188-34.71875-6.859375-49.429687 2.949218l-15.164063 10.113282c-5.816406 3.875-13.652344 2.53125-17.835937-3.054688-2.347657-3.132812-3.179688-7.117187-2.28125-10.925781.898437-3.8125 3.421875-7 6.921875-8.753906l18.519531-9.25c4.613281-2.3125 7.742187-6.75 8.371094-11.875.628906-5.121094-1.332031-10.179688-5.25-13.535157l-39.21875-33.625c-3.664063-3.140624-4.414063-8.539062-1.734375-12.558593 2.925781-4.386719 8.882812-5.566407 13.230468-2.671875.011719.003906.585938.390625.59375.398437 9.492188 6.324219 22.34375 3.746094 28.664063-5.734375 1.191406-1.792968 3.109375-2.941406 5.253906-3.152344 2.171875-.242187 4.253907.53125 5.777344 2.058594l4.996094 5c3.496093 3.5 4.699219 8.582032 3.136719 13.265625l-1.320313 3.96875c-2.757813 8.273438-2.128906 17.125 1.769531 24.925781l2.597656 5.207032c7.046876 14.085937 18.976563 25.058594 33.601563 30.917968l22.601563 9.035157c2.261718.90625 4.832031.53125 6.753906-.972657 1.914062-1.507812 2.882812-3.921874 2.535156-6.335937l-5.902344-41.296875c-1.890625-13.261719-6.222656-25.886719-12.878906-37.542969l-15.144531-26.492187c-1.625-2.84375-1.996094-6.144532-1.042969-9.285156.949219-3.136719 3.089844-5.671876 6.019531-7.140626 5.839844-2.914062 12.9375-.53125 15.84375 5.289063l8.8125 17.617187c1.082031 2.167969 3.230469 3.59375 5.640625 3.761719 2.503906.113281 4.738282-.96875 6.101563-2.96875l10.175781-14.898437c5.960938-8.738282 9.113281-18.945313 9.113281-29.519532 0-14.839843-6.644531-28.671874-18.234375-37.945312-13.296875-10.640625-31.382812-13.328125-47.203125-6.972656l-28.808593 11.546875c-2.90625 1.160156-6.175782 1.007812-8.964844-.433594-2.785156-1.449219-4.800782-4.019531-5.527344-7.078125-1.320312-5.554688 1.929688-11.183594 7.390625-12.824219l35.515625-10.625c1.933594-.582031 3.511719-1.980469 4.308594-3.832031.800781-1.847656.742187-3.953125-.160156-5.761719l-17.144532-34.292969c-3.042968-6.085937-.566406-13.519531 5.519532-16.558593 6.070312-3.054688 13.515624-.570313 16.558593 5.515625l9.320313 18.640625c5.648437 11.292969 14.1875 20.976562 24.703125 27.980469l22.171875 14.789062c11.222656 7.472656 26.289062 5.992188 35.816406-3.546875 9.925781-9.925781 11.058594-25.875 2.640625-37.101563l-5.132813-6.851562c-3.3125-4.414062-2.871093-10.695312 1.035157-14.601562 2.296875-2.292969 5.460937-3.464844 8.699219-3.246094 3.28125.234375 6.175781 1.8125 8.148437 4.445312l2.296875 3.054688c3.957031 5.28125 9.988281 8.6875 16.550781 9.351562 6.535157.667969 13.152344-1.457031 18.082031-5.824218 5.078126-4.488282 7.992188-10.949219 7.992188-17.734376v-9.632812c0-5.648438 4.589844-10.242188 10.238281-10.242188 5.648438 0 10.242188 4.59375 10.242188 10.242188v17.226562c0 3.773438 3.054687 6.824219 6.824219 6.824219h16.988281c5.6875 0 10.320312 4.628907 10.320312 10.320313 0 5.695312-4.632812 10.320312-10.320312 10.320312h-21.621094c-16.882813 0-32.054687 9.382813-39.609375 24.476563l-6.792969 13.585937c-.882812 1.773438-.957031 3.839844-.199219 5.664063.757813 1.828125 2.269532 3.242187 4.144532 3.863281l7.617187 2.539062c2.3125.773438 4.089844 2.539063 4.878907 4.839844.792968 2.308594.472656 4.785156-.882813 6.8125-2.015625 3.03125-5.933594 4.261719-9.328125 2.894532l-18.570312-7.429688c-10.644532-4.246094-22.722657-1.746094-30.78125 6.402344-5.316407 5.359375-8.242188 12.472656-8.242188 20.023437v4.941407c0 16.421874-4.730469 32.375-13.679688 46.140624-14.070312 21.648438-19.03125 47.511719-13.96875 72.832032l9.839844 49.195312c.652344 3.226563 3.546875 5.632813 6.804688 5.484375 3.296875-.050781 6.082031-2.453125 6.621094-5.707031l5.574218-33.433594c1.609375-9.644531 7.121094-18.398437 15.125-24.011718l2.804688-1.964844c13.675781-9.585938 21.839844-25.28125 21.839844-41.980469v-22.367187c0-5.648438 4.589843-10.238282 10.238281-10.238282 5.648437 0 10.238281 4.589844 10.238281 10.238282v14.941406c0 5.617187 3.113281 10.6875 8.128906 13.21875 5.003906 2.539062 10.933594 2.054687 15.472656-1.28125 2.625-1.9375 4.566407-4.730469 5.460938-7.863282l10.207031-35.730468c3.5-12.238282 11.515625-22.457032 22.570313-28.777344l25.5-14.574219c2.40625-1.378906 5.210937-1.742187 7.875-.992187 2.675781.734375 4.902344 2.457031 6.269531 4.867187 1.382813 2.433594 1.722656 5.257813.957031 7.953125-.765625 2.691406-2.539062 4.914063-4.996094 6.253906l-31.191406 17.050782c-7.179687 3.921875-11.640625 11.449218-11.640625 19.628906 0 12.335938 10.039063 22.371094 22.375 22.371094zm0 0"/></svg>