<svg id="Layer_1" enable-background="new 0 0 512 512" height="512" viewBox="0 0 512 512" width="512" xmlns="http://www.w3.org/2000/svg"><path d="m512 256.807c0-28.285-10.031-54.271-26.721-74.599v-133.368c0-18.659-15.189-33.84-33.858-33.84s-33.859 15.181-33.859 33.84v92.517c-7.577-1.534-15.414-2.342-23.437-2.342h-6.976l-17.275-29.44c-.938-1.603-1.827-3.252-2.767-4.997-5.031-9.341-11.923-22.135-28.068-22.135h-166.078c-16.162 0-23.038 12.781-28.058 22.113-.943 1.753-1.834 3.409-2.772 5.01l-17.28 29.449h-6.976c-64.997.001-117.875 52.842-117.875 117.792s52.878 117.791 117.876 117.791c61.581 0 112.283-47.46 117.419-107.707h41.383c5.137 60.246 55.85 107.707 117.447 107.707 8.013 0 15.84-.807 23.408-2.336-.614 22.385-19.02 40.409-41.572 40.409h-48.911v-.901c0-19.815-16.129-35.936-35.955-35.936h-70.189c-19.826 0-35.955 16.121-35.955 35.936v24.633c0 33.413 27.189 60.597 60.608 60.597h20.855c16.12 0 30.779-6.331 41.651-16.62h67.896c60.278 0 109.318-49.018 109.318-109.269v-39.705c16.69-20.328 26.721-46.314 26.721-74.599zm-60.58-221.638c7.548 0 13.69 6.133 13.69 13.671v58.351h-27.379v-58.351c0-7.538 6.141-13.671 13.689-13.671zm-13.689 92.191h27.379v35.473c-8.336-6.303-17.532-11.527-27.379-15.459zm-141.312 129.447c0-5.57-4.515-10.085-10.084-10.085h-60.697c-5.569 0-10.084 4.515-10.084 10.085 0 53.829-43.818 97.622-97.677 97.622-53.875 0-97.707-43.793-97.707-97.622s43.83-97.622 97.706-97.622h93.311c5.569 0 10.084-4.515 10.084-10.085s-4.515-10.085-10.084-10.085h-62.949l11.296-19.25c1.127-1.924 2.146-3.82 3.133-5.653 4.792-8.909 6.725-11.499 10.295-11.499h166.078c3.561 0 5.499 2.597 10.31 11.53.983 1.824 1.998 3.709 3.123 5.631l11.291 19.241h-62.779c-5.569 0-10.084 4.515-10.084 10.085s4.515 10.085 10.084 10.085h80.376c.008 0 .015.001.023.001s.015-.001.022-.001h12.719c53.875 0 97.707 43.793 97.707 97.622s-43.832 97.622-97.708 97.622-97.705-43.793-97.705-97.622zm-50.861 220.024c-22.298 0-40.439-18.135-40.439-40.428v-24.633c0-8.694 7.082-15.766 15.787-15.766h70.189c8.705 0 15.787 7.073 15.787 15.766v24.633c0 10.21-3.816 19.542-10.088 26.665-.302.293-.585.605-.848.934-7.39 7.886-17.891 12.829-29.531 12.829zm130.403-16.621h-53.794c3.139-7.313 4.883-15.359 4.883-23.807v-3.563h48.911c34.061 0 61.77-27.692 61.77-61.73v-4.871c9.848-3.932 19.043-9.156 27.379-15.459v20.33c0 49.131-39.992 89.1-89.149 89.1z"/><path d="m83.195 209.136c-15.694 14.263-24.695 34.599-24.695 55.795 0 10.914 2.272 21.414 6.752 31.207 1.695 3.705 5.353 5.892 9.177 5.892 1.404 0 2.83-.295 4.189-.917 5.066-2.317 7.292-8.301 4.976-13.366-3.267-7.142-4.924-14.818-4.924-22.816 0-15.524 6.594-30.421 18.092-40.869 4.122-3.746 4.426-10.124.68-14.245-3.747-4.123-10.125-4.427-14.247-.681z"/><path d="m130.937 190.015-.17.057c-5.283 1.761-8.139 7.472-6.378 12.756 1.409 4.226 5.343 6.898 9.566 6.898 1.056 0 2.132-.167 3.19-.52l.17-.057c5.283-1.761 8.139-7.472 6.378-12.756-1.761-5.282-7.468-8.142-12.756-6.378z"/><path d="m256.185 139.016h-.199c-5.569 0-10.084 4.515-10.084 10.085s4.515 10.085 10.084 10.085h.199c5.569 0 10.084-4.515 10.084-10.085s-4.515-10.085-10.084-10.085z"/></svg>